<svg t="1762480269769" class="icon" viewBox="0 0 1024 1024" version="1.1" xmlns="http://www.w3.org/2000/svg" p-id="6221" width="200" height="200"><path d="M317.6 910.66666667a229.2 33.6 0 1 0 458.4 0 229.2 33.6 0 1 0-458.4 0Z" fill="#FEEAEF" p-id="6222"></path><path d="M293.6 517.06666667s-64.2-3-81.6-24-2.4-55.2-2.4-55.2l187.2-367.2s60-33 120 0l352.8 213.6s26.4 15.6 21.6 48-64.8 55.2-64.8 55.2l33.6 187.2s18.6 63-31.2 86.4l-64.8 14.4-50.4-16.8s2.7192-143.28-48-129.6c-37.8 10.2-33.6 62.4-33.6 62.4l21.6 108-81.6 19.2s-36.6 75.6-64.8 76.8c-22.2096 0.96-67.62-17.9448-82.344-30.4512A168.5376 168.5376 0 0 0 411.2 754.66666667l-19.2 4.8s-96.6-9.6-112.8-62.4z" fill="#FACBD6" p-id="6223"></path><path d="M238.4 519.46666667s-64.2-3-81.6-24-2.4-55.2-2.4-55.2l225.6-348s21.6-52.2 81.6-19.2l352.8 213.6s26.4 15.6 21.6 48-64.8 55.2-64.8 55.2l38.4 168s18.6 63-31.2 86.4l-64.8 14.4-24-96s-23.6808-64.08-74.4-50.4c-37.8 10.2-33.6 62.4-33.6 62.4l21.6 108-81.6 19.2s-36.6 75.6-64.8 76.8c-22.2096 0.96-41.22-25.1448-55.944-37.6512A44.4312 44.4312 0 0 0 387.2 733.06666667l-45.6 9.6s-46.2 4.8-62.4-48z" fill="#d9699d" p-id="6224"></path></svg>